<svg xmlns="http://www.w3.org/2000/svg">
    <path class="e1" d="M22.2727 18.3333L24.6455 15.9333C23.9864 15.4 23.1955 15 22.2727 15C20.4273 15 18.9773 16.4667 18.9773 18.3333C18.9773 20.2 20.4273 21.6667 22.2727 21.6667C23.3273 21.6667 24.25 21.1333 24.9091 20.3333H27.15C26.3591 22.3333 24.5136 23.6667 22.2727 23.6667C19.3727 23.6667 17 21.2667 17 18.3333C17 15.4 19.3727 13 22.2727 13C23.7227 13 25.0409 13.5333 25.9636 14.6L27.5455 13V18.3333H22.2727Z"/>
    <path class="e0" d="M14.5 6C16.7409 6 18.4545 7.73333 18.4545 10C18.4545 12.2667 16.7409 14 14.5 14C12.2591 14 10.5455 12.2667 10.5455 10C10.5455 7.73333 12.2591 6 14.5 6ZM14.5 18.6667C14.5 18.2667 14.5 17.7333 14.6318 17.3333H14.5C9.49091 17.3333 5.00909 14.5333 2.9 10C5.00909 5.46667 9.49091 2.66667 14.5 2.66667C19.5091 2.66667 23.9909 5.46667 26.1 10C25.9682 10.1333 25.9682 10.2667 25.8364 10.5333C26.6273 10.8 27.4182 11.2 28.2091 11.7333C28.4727 11.2 28.7364 10.5333 29 10C26.7591 4.13333 21.0909 0 14.5 0C7.90909 0 2.24091 4.13333 0 10C2.24091 15.8667 7.90909 20 14.5 20H14.6318C14.5 19.6 14.5 19.0667 14.5 18.6667Z"/>
</svg>