<?xml version="1.0" encoding="UTF-8"?><svg id="Ebene_2" xmlns="http://www.w3.org/2000/svg"><path d="M182.98,111.54c-10.88,0-20.11,7.08-23.33,16.89l.07-.33-17.5-3.53c.02-.5.04-1.01.04-1.51,0-8.02-2.94-15.34-7.8-20.97l9.71-10.51c3.4,2.23,7.46,3.54,11.82,3.54,11.91,0,21.57-9.66,21.57-21.57s-9.66-21.57-21.57-21.57-21.57,9.66-21.57,21.57c0,5.29,1.91,10.12,5.07,13.87l-9.56,10.34c-4.02-3.15-8.81-5.37-14.04-6.31l4.1-48.56c10.47-1.48,18.53-10.45,18.53-21.33,0-11.91-9.66-21.57-21.57-21.57s-21.57,9.66-21.57,21.57c0,10.69,7.79,19.55,18,21.25l-4.06,48.13c-5.63.14-10.9,1.73-15.46,4.41l-9.61-13.93c2.03-2.33,3.27-5.36,3.27-8.69,0-7.31-5.93-13.24-13.24-13.24s-13.24,5.93-13.24,13.24,5.93,13.24,13.24,13.24c1.74,0,3.4-.35,4.93-.96l9.64,13.97c-4.86,4.3-8.4,10.05-9.96,16.57l-29.79-3.8c-.05-13.52-11.02-24.47-24.55-24.47S0,98.29,0,111.85s10.99,24.55,24.55,24.55c11.24,0,20.71-7.56,23.62-17.86l29.84,3.81c0,.24-.02.47-.02.71,0,10.62,5.15,20.03,13.09,25.88l-23.88,43.69c-2.53-1.04-5.29-1.62-8.2-1.62-11.91,0-21.57,9.66-21.57,21.57s9.66,21.57,21.57,21.57,21.57-9.66,21.57-21.57c0-7.01-3.36-13.23-8.55-17.17h.02s23.82-43.56,23.82-43.56c4.3,2.13,9.14,3.34,14.27,3.34,2.94,0,5.79-.4,8.5-1.14l7.92,19.5c-3.34,2.4-5.52,6.31-5.52,10.74,0,7.31,5.93,13.24,13.24,13.24s13.24-5.93,13.24-13.24-5.93-13.24-13.24-13.24c-.82,0-1.62.09-2.41.23l-7.81-19.25c8.59-4.13,15.06-11.98,17.33-21.46l17.15,3.46c-.06.68-.09,1.37-.09,2.07,0,13.56,10.99,24.55,24.55,24.55s24.55-10.99,24.55-24.55-10.99-24.55-24.55-24.55ZM65.48,72.75c0-4.86,3.94-8.8,8.8-8.8s8.8,3.94,8.8,8.8-3.94,8.8-8.8,8.8-8.8-3.94-8.8-8.8ZM24.55,130.77c-10.45,0-18.92-8.47-18.92-18.92s8.47-18.92,18.92-18.92,18.92,8.47,18.92,18.92-8.47,18.92-18.92,18.92ZM75.29,212.58c0,8.99-7.29,16.29-16.29,16.29s-16.29-7.29-16.29-16.29,7.29-16.29,16.29-16.29,16.29,7.29,16.29,16.29ZM142.59,184.29c0,4.6-3.73,8.33-8.33,8.33s-8.33-3.73-8.33-8.33,3.73-8.33,8.33-8.33,8.33,3.73,8.33,8.33ZM156,57.11c9.08,0,16.45,7.36,16.45,16.45s-7.36,16.45-16.45,16.45-16.45-7.36-16.45-16.45,7.36-16.45,16.45-16.45ZM101.04,21.57c0-8.79,7.12-15.91,15.91-15.91s15.91,7.12,15.91,15.91-7.12,15.91-15.91,15.91-15.91-7.12-15.91-15.91ZM110.13,149.64c-14.68,0-26.57-11.9-26.57-26.57s11.9-26.57,26.57-26.57,26.57,11.9,26.57,26.57-11.9,26.57-26.57,26.57ZM182.98,154.93c-10.4,0-18.83-8.43-18.83-18.83s8.43-18.83,18.83-18.83,18.83,8.43,18.83,18.83-8.43,18.83-18.83,18.83Z"/></svg>